<?xml version="1.0" encoding="utf-8"?>
<!-- Generator: Adobe Illustrator 22.0.1, SVG Export Plug-In . SVG Version: 6.00 Build 0)  -->
<svg version="1.1" id="Layer_1" xmlns="http://www.w3.org/2000/svg" xmlns:xlink="http://www.w3.org/1999/xlink" x="0px" y="0px"
	 viewBox="0 0 1190.6 300" style="enable-background:new 0 0 1190.6 300;" xml:space="preserve">
<style type="text/css">
	.st0{fill:#F50CE2;}
	.st1{font-family:'Impact';}
	.st2{font-size:34.0554px;}
</style>
<g>
	<path class="st0" d="M181.8,88.6c0.9,0,3.2,1.1,7,3.4c3.8,2.3,6.5,4.3,7.7,5.6l2.5,2.9l-2.9,1.1c-2.2,0.7-3.2,1.1-3.4,1.1l-7.2,3.4
		c-3.4,1.8-6.5,2.7-8.8,2.7c-1.3,0-2.2,0-3.1-0.2c-0.7-0.2-1.6-0.2-2.9-0.2c-1.6,0-2.9,0.4-3.8,1.1c-1.4,1.4-14.6,8.8-39.5,21.9
		c-26.2,14.2-39.3,21.4-39.3,21.6c0,0.5,3.8,0.7,11.5,0.7c11.1,0,24.8-0.4,41.1-1.1c16.2-0.7,25.2-1.4,26.9-2.2
		c1.4-0.5,2.3-0.7,2.7-0.7c1.1,0,2.9,1.1,5.6,3.2c2.9,2.3,4.5,3.4,5,3.4l0.4-0.2c0.7,0,1.6-0.2,2.5-0.2c1.8,0,2.9,1.1,3.2,3.1v1.1
		c0,1.6-1.3,4-3.8,7s-4.7,4.7-6.5,4.7c-0.5,0-1.6-0.2-2.3-0.2h-2.5c-10.1,0-33.8,0.9-71.1,2.7c-37.5,1.8-56.8,3.1-57.8,3.6
		c-0.5,0.4-1.1,0.5-2,0.5c-1.3,0-3.8-0.5-7.4-1.8c-4.7-1.6-7-2.7-7-3.2c0-0.7-0.5-1.1-1.8-1.1c-1.6,0-4.3-1.1-8.4-3.1
		c-4.1-2-6.1-3.4-6.1-4.1c0-1.4,1.4-2.2,4.1-2.2c1.3,0,2.5,0.2,3.4,0.7c0.5,0.4,1.3,0.5,2.2,0.5c1.6,0,5.4-1.1,11-3.2l10.8-4.1
		l5.6,3.1c3.1,1.6,5.2,2.3,6.5,2.3c0.2,0,0.4,0,0.4-0.2c0-0.5-1.3-1.4-4-3.1c-3.2-2-4.9-3.4-4.9-4.3c0-0.5,0.4-1.1,1.3-1.8
		c0.7-0.5,18.5-9.2,53.5-26.1c35.4-16.9,56.1-27.1,62-30.5c6.6-3.8,10.8-5.6,12.6-5.6C178.2,90.7,180.6,88.6,181.8,88.6z
		 M65.8,172.8H53.9H42.2c0.5,0.2,1.3,0.2,2.2,0.2c1.6,0,7.2,0.2,9.5,0.2s8.1-0.2,9.5-0.2L65.8,172.8z M103.7,156.6
		c0.2-0.4,0.2-0.5-0.4-0.5h-0.9c-1.3,0-1.6,0.2-0.7,0.7C102.6,157.2,103.1,157.2,103.7,156.6z"/>
	<path class="st0" d="M272.2,113.9c0,0.7-0.2,2.7-0.4,6.1c-0.2,1.6-0.2,3.6-0.2,5.9c0,3.4,0.4,5,1.3,5c0.5,0,1.1-0.4,1.8-1.1
		c0.9-0.9,0.7-1.6-0.2-2.2c-0.2-0.2-0.4-0.4-0.4-0.7c0-0.9,3.4-4.1,10.2-9.5c2.3-2,4.3-3.1,5.6-3.4c1.3-0.4,3.6-0.5,7.4-0.5
		c5.2,0,7.5,0.4,7.4,0.9c-0.2,0.5-9.2,11.5-26.8,32.9l-26.6,31.8l-8.3,4.1c-7,3.4-9.7,5.4-14.9,11.9c-4.1,4.9-6.6,7.4-7.7,7.4
		c-0.5,0-0.7-0.4-0.5-1.3c0-0.7,8.4-11.3,25.3-32c17.1-21,25.9-31.6,26.1-32.2c0.5-0.9,0.2-1.4-1.1-1.3l-0.5,0.2h-0.7
		c-1.6,0-3.2-1.1-5.2-3.4c-3.1-3.4-3.6-4.7-3.6-10.2c0-3.1,0.2-5,0.7-5.9c0.4-0.7,1.8-1.8,4.1-3.2
		C270.7,109.6,272.2,109.4,272.2,113.9z"/>
	<path class="st0" d="M415.9,59.5c0.4,0,0.5,0.2,0.5,0.7c0,0.2-1.4,2.5-4.5,7c-2.9,4.1-4.3,8.1-4.3,12.2c0,2.9-0.5,5.2-1.6,7
		c-1.3,2-5,7-11.5,15.5c-8.8,11.1-13.1,16.9-13.1,17.1c0,0.5,4,0.7,12,0.7h12l2.2,4.7l2.5,4.5l-2.7,1.8c-0.7,0.5-4.3,3.1-10.8,7.9
		c-3.2,2.3-6.1,4.5-8.6,6.3c-29.3,21.6-44,32.3-44.4,32.3c-0.9,0-4.1-1.8-9.7-5.2c-5.6-3.6-8.4-5.7-8.4-6.3
		c0-1.1,10.8-14.7,32.3-41.1c13.7-16.7,22.6-27.7,27.1-32.7c4.5-5,7.5-7.9,9.3-8.6c2.9-1.3,5.6-4,7.9-8.1c2.2-3.8,4.9-7.4,7.9-11
		C413,61.1,415,59.5,415.9,59.5z M377.3,130.6c-5.7,0-6.5,0.4-9.5,4c-2.9,3.6-3.2,3.8-10.2,4c-4.1,0-6.3,0.2-6.3,0.7
		c0,0.9,1.3,1.3,3.8,1.3c2.3,0,4.1,0.2,5,0.5c0.5,0.2,0.9,0.5,0.9,1.1c0,1.6-3.2,3.8-6.8,4h-0.4l-2.2,0.4c0.2,0,0.7,0,1.6,0.2
		c2,0.2,3.1,0.5,3.1,1.1c0,0.2-1.1,1.8-3.1,4.5l-3.1,4.1l5.6-4c3.8-2.7,6.6-4.3,8.4-4.7c2-0.5,2.9-1.3,2.9-2.2c0-2.2,5-5,8.8-5
		c2.3,0,3.4-0.5,3.4-1.6c0-0.4-0.5-0.5-1.4-0.5c-0.7-0.2,0-1.3,2.2-3.2c2.3-2.2,3.6-3.4,3.6-3.8
		C383.6,130.8,381.4,130.6,377.3,130.6z M361.6,130.8c-1.3,0.2-1.6,0.4-1.3,0.5c0.9,0.2,1.8,0.2,2.7,0
		C362.9,131.1,362.5,131,361.6,130.8z"/>
	<path class="st0" d="M489,168.3c-25.3,5.6-38.1,8.3-38.3,8.3c-0.5,0-2.9-2-7.2-5.7c-4.3-3.8-6.5-5.9-6.5-6.5
		c0-0.7,3.2-5.8,9.9-15.3l10.1-14.2h4.5c0.7,0,4.1-0.2,6.1-0.2c1.6,0,6.3,0.2,8.3,0.2h4.3c3.1,0,4.5-0.2,4.5-0.7
		c0-0.2-0.2-0.5-0.5-0.9c-0.9-0.9-3.6-1.4-7.7-1.4h-4.5h-3.2c-5.6,0-8.3-0.2-8.3-0.5c0-0.9,3.8-6.6,11.1-17.1l11.9-16.7l22.5,0.7
		c18.1,0.5,31.1,0.9,39.2,1.3l16.7,0.7c-2.3,3.1-4.7,6.6-7,10.6h-16.5c-7.5,0-12.2,0.2-14.2,0.4c-2,0.2-3.4,0.9-4.3,1.8
		c-2,2-3.4,2.3-13.3,2.3h-11.3l-1.6,3.2l-1.8,3.2h23.7h8.3c11.5,0,14.4,0.4,14.4,2c0,0.4-0.9,2.2-2.9,5.4c-1.4,2.3-3.4,3.8-5.7,4.3
		c-2.5,0.5-12.4,2-29.5,4.1c-10.8,1.3-16.9,2.5-18.5,3.4c-0.9,0.5-2,2.2-3.4,4.9c-1.8,3.2-2.7,5.2-2.7,6.1c0,0.2,0.4,0.4,0.9,0.4
		c1.6,0,12.4-1.6,32.3-4.9c14.7-2.3,22.8-3.6,24.1-3.6c1.6,0,1.8,0.5,1.8,1.4c0,0.9-1.1,3.6-3.1,8.1c-2.2,4.5-3.4,6.6-4,6.6
		C527.1,160.1,514.3,162.8,489,168.3z M470.1,153.8c-9.2,0.5-14,1.3-14.9,2.2c-0.2,0.2-0.4,0.4-0.4,0.5c0,0.4,1.6,0.5,4.9,0.5h4.7
		c6.3-0.4,9.5-1.1,9.5-2.2c0-0.2-0.2-0.2-0.2-0.4C473.2,153.8,472.1,153.6,470.1,153.8z M466.6,126.3c-1.4,0-1.4,2.2,0,2.2
		C468.2,128.4,468.2,126.3,466.6,126.3z M486.9,124.3h-1.6c-2.3,0-4.5,0.2-6.6,0.7c-1.6,0.5-1.8,0.7-0.7,0.9h2.5
		c2.9,0,5-0.4,6.5-0.9C488.1,124.5,488.1,124.3,486.9,124.3z M483.6,153.6c-6.6,0-6.6,2.2,0,2.2
		C490.1,155.7,490.1,153.6,483.6,153.6z M490.1,125 M493.5,154.1c0.4-0.4,0.2-0.5-0.4-0.5h-0.9c-1.3,0-1.6,0.2-0.7,0.7
		C492.4,154.9,493,154.7,493.5,154.1z M492.4,127.5c-0.2,0.5-0.2,0.9,0.4,0.9C494.9,128.4,493.9,124.1,492.4,127.5z"/>
	<path class="st0" d="M609.4,92.5l7.9,0.7c32.9,2.7,53.9,4,63.1,4c2,0,4,1.6,6.3,5c2.2,3.2,3.2,5,3.2,5.4l-23.9,8.3
		c-16,5.2-23.9,8.1-23.9,8.6c0,0.4,6.3,3.1,19,7.9l19.2,7.5l-12.9,12.9l-8.1-2.3c-6.3-2-9.5-3.2-9.5-4c0-0.2,0.7-0.4,2-0.4
		c7.9-0.5,11.9-1.1,11.9-1.8c0-0.2-2.5-0.4-7.5-0.4c-5.6,0-8.6,0.4-9.3,1.1c-0.9,0.9-1.6,0.9-2,0c-0.4-0.7-1.3-1.1-2.7-1.1
		c-1.3,0-4.5-1.1-10.1-3.2s-10.8-4.3-15.5-6.6c-4.1-2.2-6.5-3.2-7.4-3.2c-0.2,0-1.8,2.7-4.7,8.3c-3.1,5.6-5.9,11.3-9,16.9l-4.3,8.4
		h-0.2c-0.5,0-2.2-1.4-4.7-4.5c-2.5-3.1-3.8-5.2-3.8-6.3c0-2,1.6-6.3,4.7-13.1c8.6-18.1,15.3-32.5,19.9-43.3L609.4,92.5z
		 M634.9,104.9h-5.4c-6.3,0-10.2,0.4-11.7,1.1c-1.4,0.7-2.2,2.5-2.3,5.6v1.1c0,2.2,0.5,2.3,2.9,2.9h0.4c2.7,0,9.3-1.4,19.6-4.3
		c10.2-2.7,15.3-4.5,15.3-5.2c0-0.2,0-0.2-0.2-0.2C651.6,105.3,645.5,104.9,634.9,104.9z M651.4,137.4c-0.5,0-0.9,0.4-1.3,1.3
		c0,0.5,0.2,0.7,0.5,0.9C652.1,139.6,652,137.4,651.4,137.4z"/>
	<path class="st0" d="M813.3,107.1h4.7l-0.7,4.5c0,0.4-0.4,2.5-1.3,6.5c0.7,1.1-28.4,11.5-64.5,22.6c-1.6,0.5-2.9,1.8-4.1,3.6
		c-1.4,1.8-2,1.6-2.9,5.4c-0.2,0.9-2.3,5.6-6.1,14c-2.7,5.6-4.7,9.2-5.7,10.6c-1.1,1.3-3.2,2.9-6.6,4.9c-6.3,3.6-7.2,4.5-9.3,10.1
		c-1.6,4.1-4.3,7.2-5.6,7.2c-0.4,0-0.5-0.2-0.5-0.4c0-0.5,4-9.2,12-25.9l12.2-25.5l-3.2-3.1c-2.2-2.2-3.1-3.4-2.9-3.6
		c0.4-0.4,8.8-0.9,8.8-2.3c0-0.9,0.2-1.4,0.7-1.4c0.7,0,3.1-3.8,7.2-11.3l5.9-11.3l6.8-0.7c4.1-0.4,13.1-0.7,26.9-1.3
		c13.5-0.5,20.7-1.1,21.7-1.6C807.7,107.4,809.9,107.1,813.3,107.1z M740.9,136.2c0.4-0.4,0.2-0.7-0.4-0.9c-0.5,0.2-0.9,0.4-0.9,0.7
		C740,136.3,740.3,136.3,740.9,136.2z M789.4,118.2c-2.3,0.2-9.2,0.7-15.1,1.3l-13.3,1.1l-2.3,4.1c-1.4,2.7-2,4.3-1.6,4.9
		c0.7,0,6.8-1.8,18.3-5.4c11.5-3.4,17.2-5.4,17.2-5.9C792.6,118,791.7,118,789.4,118.2z"/>
	<path class="st0" d="M902.9,118.9c10.2-16.7,16-25,16.9-25s1.4,0.2,1.4,0.5c0,0.2-0.9,2-2.5,5c-1.6,2.7-2.3,5.9-2.3,9.7
		c0,2.5,0.4,5,1.1,7.7c0,0.2,0.2,0.7,0.2,0.9c0,2-4.5,11.1-13.7,27.5c-11,19.9-16.5,29.8-16.5,30c-1.4,3.1-2.5,4.5-3.1,4.3
		c-8.1-3.8-12.2-6.1-12.2-6.6l0.9-2.5c0.9-3.6,2.3-7.5,2.2-7.5c-0.4,0-4.5,2.9-12.6,8.4l-12.2,8.6l-5.7-4.1
		c-1.6-1.3-4.1-2.9-5.4-3.6l-0.7-0.5c0-0.5,2-5.6,5.9-15.3c3.1-7,5.2-11.3,6.3-12.9c0.9-1.6,2.7-3.1,5.4-4.5
		c3.6-1.8,6.1-2.7,7.4-2.7c1.4,0,2.2,1.1,2.2,3.4c0,3.1-1.1,6.8-3.2,11.5c-2,4.9-3.1,7.5-3.1,8.1c0,0.9,4.7-1.6,14.2-7.2l13.8-8.4
		L902.9,118.9z"/>
	<path class="st0" d="M981.4,104.7c0.4,0,0.4,1.3,0.2,3.6c0,0.5-0.2,1.4-0.2,1.6c0,1.6,0.5,1.8,2.9,2.3c1.8,0.2,2.9,0.9,3.4,2.2
		c6.3,21.9,9.5,33.4,9.5,34.3c0,1.4-2.2,1.8-14.7,1.8c-9.9,0-14.9,0.4-15.3,1.1c-0.2,0.4,0.2,0.7,1.1,0.9c0.9,0.2,2,0.2,3.2,0.2
		c3.2,0,4.9,0.2,4.9,0.7c0,0.5-2.3,4.5-6.8,11.7l-6.8,11l-5.9,1.3c-5.7,1.3-9.7,2-12,2c-2,0-2.9-0.5-2.9-1.6c0-2,1.1-4.9,3.1-8.3
		c3.1-5.7,4.1-7,7.5-7.9h0.2l0.4-0.2l2.2-0.7c-0.2,0-0.7,0-1.8-0.2h-3.1l1.8-4c1.6-3.6,2-3.8,7.7-3.8c3.8,0,5.7-0.4,5.7-1.3
		c0-0.5-0.2-0.7-0.7-0.5c-0.5,0.4-2.2,0.4-5-0.2l-4-0.7l6.6-12c1.3-2.3,3.6-6.3,6.6-11.9c3.1-5.6,5-9.2,5.9-10.8
		C979.1,108.3,981.3,104.7,981.4,104.7z M1020.6,111.4h9c6.3,0,9.3,0.2,9.3,0.7c0,0.9-5.7,11.7-17.2,32.7
		c-11.5,21.2-17.8,32.3-19,33.8c-0.9,0.9-3.6,1.4-7.7,1.4c-3.1,0-5-0.2-5.7-0.5c-0.7-0.5-1.8-1.8-3.2-4.1c-2-3.4-3.1-6.8-3.4-10.1
		c-0.2-2-0.7-5-1.4-9l-0.5-3.6h7c9.3,0,14.7-1.3,16.2-3.6c1.4-2.3,1.3-2.5-1.1-0.4c-1.6,1.6-2.7,2-2.9,1.4c0-1.3,3.4-7.9,10.1-19.6
		L1020.6,111.4z M1010.7,145.1"/>
	<path class="st0" d="M1158.9,86.4h0.2c0.2,0,0.4,0,0.4,0.2c0,0.7-2,3.1-6.1,7.2c-4.5,4.5-9.5,8.1-15.1,11c-5.9,2.9-9.2,4.7-9.7,5.4
		c-0.4,0.5-5.4,3.6-15.3,8.8c-9.7,5.2-14.6,7.9-14.6,8.3c0,0.2,2.5,1.8,7.5,4.9c5.9,3.4,8.8,5.7,8.8,6.6c0,0.2-0.4,0.5-0.9,0.7
		c-2.3,0.7-1.8,1.8,1.4,3.2c2.3,0.9,2.7,2.2,2.7,5.7c0,2.9,0.4,4.3,1.1,4.3c0.5,0,8.6,4.1,24.6,12.6c15.6,8.4,24.1,12.6,25.2,12.6
		c1.4,0,3.4,0.5,6.1,1.6c2.5,1.1,4,2.7,4.5,4.9c0.2,1.3,0.4,2.5,0.4,3.2v0.5c-0.7,0-17.4-8.8-49.9-26.4s-49-26.4-49.6-26.4
		c-0.9,0-3.6,3.8-8.1,11.5l-6.6,11.3c-2.9-2-5-3.4-6.3-4.3l1.8-4.5c0.7-2,1.1-3.4,1.1-4.7c0-0.9-0.2-1.8-0.5-2.7
		c-0.2-0.7-0.4-1.3-0.4-1.8c0-2,2.7-8.1,8.3-18l9-16.5l6.8-0.2h2c3.8,0,5.7,0.5,5.7,1.4c0,1.6-0.7,3.8-2.3,6.5
		c-1.6,2.9-3.4,6.5-2.9,6.5c1.4,0,13.1-5.4,35.2-16.3C1146.5,92.2,1158.4,86.4,1158.9,86.4z M1082.9,132"/>
</g>
<text transform="matrix(2.0702 0 0 1 95.6719 238.623)" class="st0 st1 st2">2.</text>
<text transform="matrix(2.0702 0 0 1 744.0596 238.623)" class="st0 st1 st2">2.</text>
<g>
	<path class="st0" d="M455.2,220.8v9c0,2-0.2,3.5-0.7,4.5c-0.5,0.9-1.4,1.8-2.9,2.6c-1.4,0.8-3.2,1.4-5.2,1.7
		c-2,0.4-4.3,0.5-6.9,0.5c-3.3,0-6.1-0.2-8.3-0.6c-2.2-0.4-4-1-5.3-1.7s-2.2-1.6-2.8-2.5c-0.6-0.9-0.8-2.3-0.8-4.1v-9.4
		c0-2.5,0.4-4.3,1.3-5.6c0.9-1.2,2.6-2.2,5.3-3c2.6-0.7,5.8-1.1,9.6-1.1c3.1,0,5.8,0.3,8.2,0.8c2.4,0.5,4.2,1.1,5.4,1.9
		c1.2,0.7,2,1.6,2.4,2.5C454.9,217.3,455.2,218.8,455.2,220.8z M441.2,218.6c0-1.4-0.1-2.3-0.4-2.7c-0.3-0.4-1-0.5-2-0.5
		c-1,0-1.7,0.2-2,0.6c-0.3,0.4-0.5,1.3-0.5,2.7v13.1c0,1.6,0.2,2.5,0.5,2.8c0.3,0.3,1,0.5,2,0.5s1.7-0.2,2-0.6
		c0.3-0.4,0.5-1.2,0.5-2.5V218.6z"/>
	<path class="st0" d="M469.4,233.1v5.5h-10.5v-5.5H469.4z"/>
</g>
<text transform="matrix(2.0702 0 0 1 1068.2529 238.623)" class="st0 st1 st2">0.</text>
</svg>
